# xmcd CD database file
#
# Track frame offsets:
#	150
#	12868
#	26319
#	41079
#	52913
#	66107
#	78656
#	90763
#	101953
#	113743
#	127389
#	143430
#	157524
#	167374
#	180528
#	192699
#	207541
#	217515
#	231650
#	245792
#
# Disc length: 3466 seconds
#
# Revision: 0
# Processed by: cddbd v1.5.2PL0 Copyright (c) Steve Scherf et al.
# Submitted via: CDex 1.51
#
DISCID=0b0d8814
DTITLE=Swing Various - Golden Jazz
DYEAR=1900
DGENRE=Jazz
TTITLE0=Dinah Washington - Mad About The Boy
TTITLE1=Duke Ellington - Satin Doll
TTITLE2=Oscar Peterson - I Got Rhythm
TTITLE3=Ella Fitzgerald - Nice Work If You Can Get It
TTITLE4=Nellie Lutcher - Fine Brown Frame
TTITLE5=Frank Sinatra - You Brought A New Kind Of Love To Me
TTITLE6=Camille Howard - Has Your Love Grown Cold
TTITLE7=Duke Ellington - In A Sentimental Mood
TTITLE8=Les Paul - Blue Skies
TTITLE9=Laurindo Almeida and Bud Shank - Stairway To The Stars
TTITLE10=Ella Fitzgerald - Ev'ry Time We Say Good-Bye
TTITLE11=Peggy Lee - Stormy Weather
TTITLE12=Perry Como - I've Got A Feeling I'm Falling
TTITLE13=Harry James - I've Heard That Song Before
TTITLE14=Bob Crosby - Song Of The Island
TTITLE15=Glenn Miller and His Orchestra - A String Of pearls
TTITLE16=Frank Sinatra - Taking A Chance On Love
TTITLE17=Johnny Mercer - One For My Baby (and one for the road)
TTITLE18=Benny Goodman - How Am I To Know
TTITLE19=Bob Manning - These Foolish Things
EXTD=
EXTT0=
EXTT1=
EXTT2=
EXTT3=
EXTT4=
EXTT5=
EXTT6=
EXTT7=
EXTT8=
EXTT9=
EXTT10=
EXTT11=
EXTT12=
EXTT13=
EXTT14=
EXTT15=
EXTT16=
EXTT17=
EXTT18=
EXTT19=
PLAYORDER=
